# xmcd CD database file
#
# Track frame offsets:
#	150
#	17030
#	42250
#	73488
#	99065
#	127588
#	162753
#	186403
#	201108
#	231430
#	262573
#
# Disc length: 3728 seconds
#
# Revision: 4
# Processed by: cddbd v1.5.2PL0 Copyright (c) Steve Scherf et al.
# Submitted via: CDex 1.50
#
DISCID=890e8e0b
DTITLE=Eliane Elias, Eddy Gommez, Jack de Johnette - Cross Currents
DYEAR=1987
DGENRE=Jazz
TTITLE0=Hallucinations
TTITLE1=Cross Currents
TTITLE2=Beautiful Love
TTITLE3=Campari and Soda
TTITLE4=One Side Of You
TTITLE5=Another Side Of You
TTITLE6=Peggy's Blue Skylight
TTITLE7=Impulsive
TTITLE8=When You Wish Upon A Star
TTITLE9=East Coastin' 
TTITLE10=Coming And Going
EXTD=YEAR: 1987
EXTT0=
EXTT1=
EXTT2=
EXTT3=
EXTT4=
EXTT5=
EXTT6=
EXTT7=
EXTT8=
EXTT9=
EXTT10=
PLAYORDER=
